<?xml version="1.0" standalone="no"?>
<!DOCTYPE svg PUBLIC "-//W3C//DTD SVG 20010904//EN"
 "http://www.w3.org/TR/2001/REC-SVG-20010904/DTD/svg10.dtd">
<svg version="1.0" xmlns="http://www.w3.org/2000/svg"
 width="518.000000pt" height="518.000000pt" viewBox="0 0 518.000000 518.000000"
 preserveAspectRatio="xMidYMid meet">
<metadata>
Created by potrace 1.14, written by Peter Selinger 2001-2017
</metadata>
<g transform="translate(0.000000,518.000000) scale(0.100000,-0.100000)"
fill="#000000" stroke="none">
<path d="M2445 5065 c-265 -57 -470 -310 -476 -585 -2 -103 8 -162 42 -248 53
-134 143 -238 267 -311 262 -153 597 -91 795 148 34 42 97 158 111 206 22 77
28 229 12 314 -10 57 -53 166 -72 182 -8 6 -14 18 -14 26 0 8 -37 52 -83 97
-61 61 -101 92 -157 119 -41 21 -84 39 -95 42 -11 2 -38 9 -60 14 -55 14 -198
12 -270 -4z"/>
<path d="M3316 4464 c4 -235 -111 -463 -300 -594 -26 -17 -46 -34 -46 -38 0
-4 28 -23 63 -42 34 -19 70 -39 79 -45 31 -18 282 -162 318 -183 51 -28 282
-161 300 -172 8 -5 52 -30 97 -56 l81 -46 0 -380 c-1 -208 2 -381 5 -385 3 -3
23 5 44 17 21 13 67 39 103 58 36 19 72 41 81 48 8 8 19 14 22 14 4 0 37 18
73 40 36 22 67 40 69 40 4 0 389 220 394 226 3 3 5 722 2 776 -1 10 -47 42
-123 85 -68 39 -284 163 -481 276 -197 114 -360 207 -362 207 -2 0 -33 18 -69
40 -36 22 -70 40 -75 40 -5 0 -11 3 -13 8 -2 6 -252 152 -261 152 -1 0 -2 -39
-1 -86z"/>
<path d="M3695 2911 c-5 -5 -28 -19 -50 -31 -22 -12 -113 -64 -202 -116 -89
-52 -165 -94 -169 -94 -4 0 -15 -6 -23 -14 -9 -8 -39 -27 -67 -43 -132 -72
-584 -339 -584 -343 0 -6 79 -51 83 -48 2 2 10 -2 18 -8 8 -7 30 -21 49 -32
19 -11 86 -49 148 -85 l114 -65 191 110 c106 61 224 129 262 151 39 23 72 42
75 42 3 1 21 11 40 23 19 12 54 32 78 44 23 13 45 32 48 43 9 39 -1 476 -11
466z"/>
<path d="M1469 2898 c0 -7 -1 -114 -1 -238 l-1 -225 84 -49 c46 -27 188 -109
314 -181 127 -73 246 -142 265 -153 l35 -20 195 111 c108 62 201 116 208 120
9 6 -9 22 -60 51 -40 24 -230 134 -423 246 -192 111 -407 236 -476 276 -69 41
-129 74 -132 74 -4 0 -7 -6 -8 -12z"/>
<path d="M4630 2550 c-36 -22 -72 -43 -80 -46 -11 -6 -372 -211 -480 -274 -8
-5 -48 -28 -87 -51 -66 -37 -73 -44 -74 -73 0 -17 -1 -99 -1 -183 l1 -152
-152 -87 c-84 -48 -233 -134 -332 -192 -99 -57 -200 -116 -225 -130 -25 -13
-58 -34 -75 -46 -16 -11 -31 -20 -33 -18 -1 1 -12 -4 -25 -12 -12 -7 -125 -73
-250 -145 l-229 -131 -61 35 c-34 19 -69 39 -77 44 -31 19 -526 305 -545 315
-11 6 -22 14 -25 17 -3 3 -18 12 -35 21 -16 8 -86 48 -155 88 -69 39 -143 82
-165 95 -22 12 -88 50 -146 84 l-107 61 0 176 c1 96 -3 179 -8 183 -20 18
-783 454 -786 449 0 -2 -2 -286 -3 -631 -1 -433 2 -630 9 -636 6 -5 27 -18 46
-29 19 -11 402 -231 850 -489 448 -258 904 -520 1012 -582 l197 -113 558 320
c307 177 783 451 1058 609 l500 289 1 637 c0 350 -2 637 -5 636 -3 0 -35 -18
-71 -39z"/>
</g>
</svg>
